# xmcd
#
# Track frame offsets: 
#        150
#        15244
#        33986
#        47244
#        66934
#        82516
#        97285
#        116948
#        134916
#        151658
#        184222
#        202216
#        216989
#        235766
#        255108
#        274510
#        290833
#        313227
#        337339
#
# Disc length: 4708 seconds
#
# Revision: 0
# Processed by: cddbd v1.5.2PL0 Copyright (c) Steve Scherf et al.
# Submitted via: ExactAudioCopy v0.99pb5
#
DISCID=23126213
DTITLE=Katie Melua - Live at the O2 Arena 
DYEAR=2009
DGENRE=Pop
TTITLE0=Piece by piece
TTITLE1=Lilac wine
TTITLE2=Kviteli potlebi (Yellow leaves)
TTITLE3=My aphrodisiac is you
TTITLE4=Crawling up a hill
TTITLE5=Mary Pickford
TTITLE6=Blues in the night
TTITLE7=If you were a sailboat
TTITLE8=Ghost town
TTITLE9=Perfect circle
TTITLE10=Spider's web
TTITLE11=Toy collection
TTITLE12=Scary films
TTITLE13=Mockingbird song
TTITLE14=The closest thong to crazy
TTITLE15=Nine million bicycles
TTITLE16=On the road again
TTITLE17=Kozmic blues
TTITLE18=I cried for you
EXTD=
EXTT0=
EXTT1=
EXTT2=
EXTT3=
EXTT4=
EXTT5=
EXTT6=
EXTT7=
EXTT8=
EXTT9=
EXTT10=
EXTT11=
EXTT12=
EXTT13=
EXTT14=
EXTT15=
EXTT16=
EXTT17=
EXTT18=
PLAYORDER=
